<svg width="40" height="40" viewBox="0 0 40 40" fill="none" xmlns="http://www.w3.org/2000/svg">
<path d="M17 28H13C12.45 28 11.9793 27.8043 11.588 27.413C11.1967 27.0217 11.0007 26.5507 11 26V12C11 11.45 11.196 10.9793 11.588 10.588C11.98 10.1967 12.4507 10.0007 13 10H27C27.55 10 28.021 10.196 28.413 10.588C28.805 10.98 29.0007 11.4507 29 12V26C29 26.55 28.8043 27.021 28.413 27.413C28.0217 27.805 27.5507 28.0007 27 28H23L20.7 30.3C20.5 30.5 20.2667 30.6 20 30.6C19.7333 30.6 19.5 30.5 19.3 30.3L17 28ZM20 24C21.4333 24 22.625 23.5 23.575 22.5C24.525 21.5 25 20.3333 25 19V15C25 14.7167 24.904 14.4793 24.712 14.288C24.52 14.0967 24.2827 14.0007 24 14H20C18.65 14 17.4793 14.475 16.488 15.425C15.4967 16.375 15.0007 17.5667 15 19C15 19.5 15.071 19.975 15.213 20.425C15.355 20.875 15.5507 21.2917 15.8 21.675L15.4 22.075C15.2 22.275 15.1 22.5083 15.1 22.775C15.1 23.0417 15.2 23.275 15.4 23.475C15.6 23.675 15.8293 23.771 16.088 23.763C16.3467 23.755 16.584 23.659 16.8 23.475L17.175 23.125C17.575 23.4083 18.0127 23.625 18.488 23.775C18.9633 23.925 19.4673 24 20 24ZM21.25 17.625C21.45 17.825 21.55 18.0627 21.55 18.338C21.55 18.6133 21.45 18.8507 21.25 19.05L19.375 20.925C19.175 21.125 18.9377 21.225 18.663 21.225C18.3883 21.225 18.1507 21.125 17.95 20.925C17.7667 20.725 17.675 20.4877 17.675 20.213C17.675 19.9383 17.7667 19.709 17.95 19.525L19.85 17.625C20.05 17.425 20.2833 17.325 20.55 17.325C20.8167 17.325 21.05 17.425 21.25 17.625Z" fill="white"/>
</svg>
