<svg width="406" height="347" viewBox="0 0 406 347" fill="none" xmlns="http://www.w3.org/2000/svg">
<g clip-path="url(#clip0_172_2170)">
<path d="M343.229 82.6197C354.634 83.73 378.491 80.05 382.674 56.4472C386.857 32.8446 398.04 26.3094 403.11 25.9922" stroke="#F3603F" stroke-width="3" stroke-linecap="round"/>
<path d="M203.723 255.912C251.6 255.912 290.413 217.073 290.413 169.162C290.413 121.251 251.6 82.4121 203.723 82.4121C155.845 82.4121 117.032 121.251 117.032 169.162C117.032 217.073 155.845 255.912 203.723 255.912Z" fill="#53B175"/>
<path d="M249.843 147.349C249.843 150.176 248.735 152.905 246.721 154.854L199.897 200.272C197.782 202.223 194.963 203.392 192.041 203.392C189.121 203.392 186.302 202.223 184.288 200.272L160.825 177.564C158.811 175.614 157.703 172.885 157.703 170.059C157.703 167.232 158.912 164.601 160.927 162.553C163.04 160.604 165.76 159.533 168.68 159.435C171.6 159.435 174.319 160.508 176.434 162.457L192.041 177.564L231.113 139.747C233.228 137.798 235.947 136.726 238.867 136.726C241.787 136.823 244.506 137.895 246.62 139.942C248.634 141.891 249.843 144.523 249.843 147.349Z" fill="white"/>
<path d="M303.608 282.889C314.254 285.967 334.837 297.669 331.998 319.84" stroke="#F7B23B" stroke-width="3" stroke-linecap="round" stroke-linejoin="round"/>
<path d="M64.6294 230.245C72.0551 231.626 89.3253 230.309 99 213.994M2.88965 251.277C19.2262 257.438 54.4454 261.857 64.6294 230.245L2.88965 251.277ZM64.6294 230.245C66.1145 221.535 64.6295 204.307 46.8079 205.072C43.4131 213.463 42.2248 230.245 64.6294 230.245Z" stroke="#6E89FA" stroke-width="3" stroke-linecap="round" stroke-linejoin="round"/>
<path d="M250.604 347C256.641 347 261.535 342.1 261.535 336.055C261.535 330.011 256.641 325.11 250.604 325.11C244.568 325.11 239.674 330.011 239.674 336.055C239.674 342.1 244.568 347 250.604 347Z" fill="#DB353A"/>
<path d="M349.696 162.738C349.696 168.384 345.126 172.96 339.488 172.96C333.85 172.96 329.28 168.384 329.28 162.738C329.28 157.092 333.85 152.516 339.488 152.516C345.126 152.516 349.696 157.092 349.696 162.738Z" stroke="#C05EFD"/>
<path d="M180.424 23.9711C187.035 23.9711 192.394 18.605 192.394 11.9856C192.394 5.36612 187.035 0 180.424 0C173.813 0 168.454 5.36612 168.454 11.9856C168.454 18.605 173.813 23.9711 180.424 23.9711Z" fill="#53B175"/>
<path d="M214.41 38.5451C217.902 38.5451 220.732 35.7112 220.732 32.2154C220.732 28.7196 217.902 25.8857 214.41 25.8857C210.919 25.8857 208.089 28.7196 208.089 32.2154C208.089 35.7112 210.919 38.5451 214.41 38.5451Z" fill="#F3603F"/>
<path d="M85.4383 125.173C85.4383 130.9 80.8014 135.542 75.0825 135.542C69.3635 135.542 64.7266 130.9 64.7266 125.173C64.7266 119.445 69.3635 114.803 75.0825 114.803C80.8014 114.803 85.4383 119.445 85.4383 125.173Z" stroke="#F7B23B"/>
<path d="M111.987 300.084C111.987 306.422 106.856 311.559 100.528 311.559C94.2001 311.559 89.0693 306.422 89.0693 300.084C89.0693 293.747 94.2001 288.61 100.528 288.61C106.856 288.61 111.987 293.747 111.987 300.084Z" stroke="#53B175"/>
<path d="M216.616 329.332C213.402 329.332 210.797 326.723 210.797 323.505C210.797 320.287 213.402 317.678 216.616 317.678C219.83 317.678 222.436 320.287 222.436 323.505C222.436 326.723 219.83 329.332 216.616 329.332Z" fill="#53B175"/>
</g>
<defs>
<clipPath id="clip0_172_2170">
<rect width="406" height="347" fill="white"/>
</clipPath>
</defs>
</svg>
