<svg width="32" height="32" viewBox="0 0 32 32" fill="none" xmlns="http://www.w3.org/2000/svg">
<path d="M26.6666 2.66675H13.3333C12.2724 2.66675 11.255 3.08818 10.5049 3.83832C9.75474 4.58847 9.33331 5.60588 9.33331 6.66675V16.0001C9.33331 17.0609 9.75474 18.0784 10.5049 18.8285C11.255 19.5787 12.2724 20.0001 13.3333 20.0001H26.6666C27.7275 20.0001 28.7449 19.5787 29.4951 18.8285C30.2452 18.0784 30.6666 17.0609 30.6666 16.0001V6.66675C30.6666 5.60588 30.2452 4.58847 29.4951 3.83832C28.7449 3.08818 27.7275 2.66675 26.6666 2.66675ZM28 16.0001C28 16.3537 27.8595 16.6928 27.6095 16.9429C27.3594 17.1929 27.0203 17.3334 26.6666 17.3334H13.3333C12.9797 17.3334 12.6406 17.1929 12.3905 16.9429C12.1405 16.6928 12 16.3537 12 16.0001V6.66675C12 6.31313 12.1405 5.97399 12.3905 5.72394C12.6406 5.47389 12.9797 5.33341 13.3333 5.33341H26.6666C27.0203 5.33341 27.3594 5.47389 27.6095 5.72394C27.8595 5.97399 28 6.31313 28 6.66675V16.0001ZM23.3333 10.6667C22.8397 10.6684 22.3644 10.8538 22 11.1867C21.7133 10.9262 21.357 10.7544 20.9746 10.6925C20.5921 10.6305 20.1999 10.681 19.8456 10.8378C19.4913 10.9945 19.1901 11.2508 18.9787 11.5755C18.7673 11.9002 18.6548 12.2793 18.6548 12.6667C18.6548 13.0542 18.7673 13.4333 18.9787 13.758C19.1901 14.0827 19.4913 14.339 19.8456 14.4957C20.1999 14.6525 20.5921 14.703 20.9746 14.641C21.357 14.5791 21.7133 14.4073 22 14.1467C22.2408 14.3656 22.5313 14.5224 22.8464 14.6035C23.1615 14.6847 23.4916 14.6877 23.8081 14.6124C24.1247 14.5371 24.418 14.3857 24.6628 14.1713C24.9076 13.9569 25.0964 13.6861 25.2128 13.3823C25.3292 13.0784 25.3697 12.7508 25.3308 12.4278C25.292 12.1047 25.1749 11.796 24.9897 11.5285C24.8045 11.261 24.5569 11.0426 24.2682 10.8925C23.9796 10.7423 23.6587 10.6648 23.3333 10.6667ZM21.3333 22.6667C20.9797 22.6667 20.6406 22.8072 20.3905 23.0573C20.1405 23.3073 20 23.6465 20 24.0001V25.3334C20 25.687 19.8595 26.0262 19.6095 26.2762C19.3594 26.5263 19.0203 26.6667 18.6666 26.6667H5.33331C4.97969 26.6667 4.64055 26.5263 4.3905 26.2762C4.14046 26.0262 3.99998 25.687 3.99998 25.3334V20.0001H5.33331C5.68693 20.0001 6.02607 19.8596 6.27612 19.6096C6.52617 19.3595 6.66665 19.0204 6.66665 18.6667C6.66665 18.3131 6.52617 17.974 6.27612 17.7239C6.02607 17.4739 5.68693 17.3334 5.33331 17.3334H3.99998V16.0001C3.99998 15.6465 4.14046 15.3073 4.3905 15.0573C4.64055 14.8072 4.97969 14.6667 5.33331 14.6667C5.68693 14.6667 6.02607 14.5263 6.27612 14.2762C6.52617 14.0262 6.66665 13.687 6.66665 13.3334C6.66665 12.9798 6.52617 12.6407 6.27612 12.3906C6.02607 12.1406 5.68693 12.0001 5.33331 12.0001C4.27245 12.0001 3.25503 12.4215 2.50489 13.1717C1.75474 13.9218 1.33331 14.9392 1.33331 16.0001V25.3334C1.33331 26.3943 1.75474 27.4117 2.50489 28.1618C3.25503 28.912 4.27245 29.3334 5.33331 29.3334H18.6666C19.7275 29.3334 20.7449 28.912 21.4951 28.1618C22.2452 27.4117 22.6666 26.3943 22.6666 25.3334V24.0001C22.6666 23.6465 22.5262 23.3073 22.2761 23.0573C22.0261 22.8072 21.6869 22.6667 21.3333 22.6667ZM7.99998 24.0001H9.33331C9.68694 24.0001 10.0261 23.8596 10.2761 23.6096C10.5262 23.3595 10.6666 23.0204 10.6666 22.6667C10.6666 22.3131 10.5262 21.974 10.2761 21.7239C10.0261 21.4739 9.68694 21.3334 9.33331 21.3334H7.99998C7.64636 21.3334 7.30722 21.4739 7.05717 21.7239C6.80712 21.974 6.66665 22.3131 6.66665 22.6667C6.66665 23.0204 6.80712 23.3595 7.05717 23.6096C7.30722 23.8596 7.64636 24.0001 7.99998 24.0001Z" fill="white"/>
</svg>
